<svg xmlns="http://www.w3.org/2000/svg" viewBox="0 0 88.97 100"><g fill-rule="evenodd"><path fill="#d3ab3e" d="M0 55.52l20.39 1.69-5.25-11.93-8.79 5.94L0 55.52z"/><path fill="#a66e29" d="M.99 49.05l12.18-8.25-9.51-21.6.98 5.89L.99 49.05z"/><path fill="#8c5d21" d="M.46 0l16.75 38.06 22.64-15.31L.46 0z"/><path fill="#a66e29" d="M44.48 25.42L19.19 42.54 44.49 100l25.29-57.46-25.3-17.12zM66.37 62.21l-12.5 28.41 29.84-29.84-17.34 1.43z"/><path fill="#d3ab3e" d="M68.58 57.21l20.39-1.69-6.35-4.3-8.79-5.94-5.25 11.93z"/><path fill="#a66e29" d="M75.8 40.8l12.18 8.25-3.66-23.96.99-5.89-9.51 21.6z"/><path fill="#8c5d21" d="M71.75 38.06L88.5 0 49.11 22.75l22.64 15.31z"/><path fill="#a66e29" d="M22.59 62.21L5.26 60.78 35.1 90.62 22.59 62.21z"/></g></svg>